<?xml version="1.0" standalone="no"?>
<!DOCTYPE svg PUBLIC "-//W3C//DTD SVG 20010904//EN"
 "http://www.w3.org/TR/2001/REC-SVG-20010904/DTD/svg10.dtd">
<svg version="1.0" xmlns="http://www.w3.org/2000/svg"
 width="100.000000pt" height="100.000000pt" viewBox="0 0 100.000000 100.000000"
 preserveAspectRatio="xMidYMid meet">
<metadata>
Created by potrace 1.14, written by Peter Selinger 2001-2017
</metadata>
<g transform="translate(0.000000,100.000000) scale(0.100000,-0.100000)"
fill="#000000" stroke="none">
<path d="M645 962 c-16 -10 -57 -33 -90 -52 -33 -18 -77 -43 -97 -54 l-38 -21
-1 -120 c-1 -66 -1 -124 0 -128 2 -10 2 -10 -65 25 l-51 27 -39 -21 c-112 -59
-220 -123 -231 -136 -9 -11 -13 -59 -13 -157 0 -98 4 -146 13 -157 15 -19 245
-149 268 -151 18 -1 241 119 270 146 17 16 19 32 19 132 l0 115 49 -30 c26
-17 54 -30 61 -30 13 0 60 25 194 102 l68 40 -51 29 -50 29 -51 -30 c-28 -17
-52 -30 -54 -30 -1 0 -3 34 -3 75 l0 76 62 34 c34 19 64 35 67 35 3 0 5 -21 6
-47 0 -27 0 -55 1 -64 1 -11 77 -59 94 -59 2 0 3 66 3 146 l-1 146 -127 74
c-71 40 -128 69 -129 63 0 -5 -1 -25 -1 -44 0 -19 1 -41 1 -48 1 -8 24 -26 51
-41 28 -15 50 -29 50 -31 0 -2 -28 -20 -62 -41 l-61 -37 -64 34 c-34 19 -63
37 -63 42 0 4 22 19 50 35 l50 27 0 58 c0 31 -1 57 -2 57 -2 0 -16 -8 -33 -18z
m-68 -278 c74 -41 73 -39 73 -121 l0 -74 -55 31 c-45 25 -58 29 -75 20 -16 -8
-25 -7 -41 4 -20 14 -20 14 11 32 23 14 30 25 29 44 -3 38 0 90 6 90 2 0 26
-12 52 -26z m-196 -220 c46 -23 53 -39 24 -58 -23 -15 -27 -15 -56 0 -64 33
-139 -11 -139 -81 0 -69 75 -114 136 -82 26 13 33 13 58 0 l28 -15 -23 -24
c-23 -25 -74 -40 -123 -36 -75 6 -135 67 -141 143 -4 56 9 89 50 129 50 48
119 58 186 24z m85 -83 c-3 -5 1 -11 9 -15 9 -3 15 0 15 9 0 8 7 15 15 15 8 0
15 -7 15 -15 0 -8 5 -14 11 -12 6 1 14 -4 16 -10 3 -7 -2 -13 -11 -13 -9 0
-16 -7 -16 -15 0 -8 7 -15 16 -15 9 0 14 -6 11 -12 -2 -7 -10 -12 -16 -10 -6
1 -11 -5 -11 -13 0 -8 -7 -15 -15 -15 -8 0 -15 7 -15 15 0 8 -4 15 -9 15 -5 0
-11 -7 -15 -15 -7 -19 -26 -19 -26 0 0 8 -5 14 -11 13 -6 -2 -14 3 -16 10 -3
6 2 12 11 12 9 0 16 7 16 15 0 8 -7 15 -16 15 -9 0 -14 6 -11 13 2 6 10 11 16
10 6 -2 11 4 11 12 0 8 7 15 16 15 8 0 13 -4 10 -9z"/>
<path d="M467 334 c-8 -8 1 -24 14 -24 5 0 9 7 9 15 0 15 -12 20 -23 9z"/>
</g>
</svg>
